<svg width="291" height="48" viewBox="0 0 291 48" fill="none" xmlns="http://www.w3.org/2000/svg">
<path d="M0.96875 25.25V23.125C0.96875 15.3542 2.47917 9.69792 5.5 6.15625C8.52083 2.59375 12.4688 0.8125 17.3438 0.8125C22.1146 0.8125 25.7604 2.10417 28.2812 4.6875C30.8229 7.25 32.1146 10.8021 32.1562 15.3438V16.1875H29.0938V15.375C29.0521 11.5625 28.0521 8.625 26.0938 6.5625C24.1354 4.5 21.2188 3.46875 17.3438 3.46875C13.1771 3.46875 9.91667 5.04167 7.5625 8.1875C5.20833 11.3333 4.03125 16.2708 4.03125 23V25.375C4.03125 32.1042 5.22917 37.0625 7.625 40.25C10.0208 43.4375 13.2812 45.0312 17.4062 45.0312C21.2396 45.0312 24.125 44 26.0625 41.9375C28 39.875 29.0104 36.9375 29.0938 33.125V32.3125H32.1562V33.3125C32.0521 37.6667 30.7604 41.1562 28.2812 43.7812C25.8021 46.3854 22.1354 47.6875 17.2812 47.6875C12.2188 47.6875 8.22917 45.8958 5.3125 42.3125C2.41667 38.7292 0.96875 33.0417 0.96875 25.25ZM38.3125 47V17.375H41.25V47H38.3125ZM37.6875 6.65625C37.6875 6.07292 37.8646 5.58333 38.2188 5.1875C38.5938 4.77083 39.125 4.5625 39.8125 4.5625C40.4792 4.5625 40.9896 4.77083 41.3438 5.1875C41.7188 5.58333 41.9062 6.08333 41.9062 6.6875C41.9062 7.29167 41.7188 7.80208 41.3438 8.21875C40.9896 8.61458 40.4688 8.8125 39.7812 8.8125C39.1146 8.8125 38.5938 8.60417 38.2188 8.1875C37.8646 7.77083 37.6875 7.26042 37.6875 6.65625ZM47.375 38.6875C47.375 35.8125 48.4688 33.5417 50.6562 31.875C52.8646 30.2083 55.8333 29.375 59.5625 29.375H67.4375V26.2812C67.4375 23.9688 66.8438 22.2292 65.6562 21.0625C64.4688 19.875 62.5521 19.2812 59.9062 19.2812C57.2604 19.2812 55.2604 19.8125 53.9062 20.875C52.5729 21.9167 51.9062 23.2812 51.9062 24.9688V25.8438H48.9375V24.7812C48.9375 22.5312 49.9167 20.625 51.875 19.0625C53.8542 17.4792 56.5521 16.6875 59.9688 16.6875C63.3021 16.6875 65.8646 17.4375 67.6562 18.9375C69.4688 20.4375 70.375 22.8542 70.375 26.1875V39.5C70.375 40.8958 70.4792 42.2188 70.6875 43.4688C70.9167 44.6979 71.2188 45.7396 71.5938 46.5938V47H68.8125C68.5 46.3958 68.2188 45.625 67.9688 44.6875C67.7396 43.75 67.5833 42.8021 67.5 41.8438C66.8333 43.3438 65.6146 44.6562 63.8438 45.7812C62.0729 46.9062 59.8125 47.4688 57.0625 47.4688C54.125 47.4688 51.7708 46.7188 50 45.2188C48.25 43.7188 47.375 41.5417 47.375 38.6875ZM50.3438 38.5938C50.3438 40.6354 50.9583 42.1979 52.1875 43.2812C53.4375 44.3438 55.25 44.875 57.625 44.875C60.2292 44.875 62.5104 44.0938 64.4688 42.5312C66.4479 40.9479 67.4375 39.125 67.4375 37.0625V31.75H59.9688C56.7396 31.75 54.3229 32.3646 52.7188 33.5938C51.1354 34.8021 50.3438 36.4688 50.3438 38.5938ZM76.25 32.5938V31.75C76.25 27.2083 77.4479 23.5625 79.8438 20.8125C82.2604 18.0625 85.5208 16.6875 89.625 16.6875C93.75 16.6875 97.0104 18.0625 99.4062 20.8125C101.802 23.5625 103 27.2083 103 31.75V32.5938C103 37.1562 101.781 40.8125 99.3438 43.5625C96.9271 46.3125 93.6875 47.6875 89.625 47.6875C85.5625 47.6875 82.3125 46.3125 79.875 43.5625C77.4583 40.8125 76.25 37.1562 76.25 32.5938ZM79.2812 31.6875V32.7188C79.2812 36.3229 80.1771 39.2917 81.9688 41.625C83.7604 43.9375 86.3125 45.0938 89.625 45.0938C92.9583 45.0938 95.5208 43.9375 97.3125 41.625C99.1042 39.2917 100 36.3125 100 32.6875V31.6875C100 28.0625 99.1146 25.0938 97.3438 22.7812C95.5938 20.4688 93.0104 19.3125 89.5938 19.3125C86.2396 19.3125 83.6771 20.4688 81.9062 22.7812C80.1562 25.0938 79.2812 28.0625 79.2812 31.6875ZM121.406 47V1.5H133.594C138.01 1.5 141.312 2.72917 143.5 5.1875C145.688 7.625 146.781 10.7917 146.781 14.6875C146.781 18.5833 145.688 21.7708 143.5 24.25C141.312 26.7292 138.01 27.9688 133.594 27.9688H124.438V47H121.406ZM124.438 25.3125H133.5C137.229 25.3125 139.865 24.2917 141.406 22.25C142.948 20.2083 143.719 17.6979 143.719 14.7188C143.719 11.7188 142.948 9.21875 141.406 7.21875C139.865 5.19792 137.24 4.17708 133.531 4.15625H124.438V25.3125ZM152.375 47V17.375H155.312V47H152.375ZM151.75 6.65625C151.75 6.07292 151.927 5.58333 152.281 5.1875C152.656 4.77083 153.188 4.5625 153.875 4.5625C154.542 4.5625 155.052 4.77083 155.406 5.1875C155.781 5.58333 155.969 6.08333 155.969 6.6875C155.969 7.29167 155.781 7.80208 155.406 8.21875C155.052 8.61458 154.531 8.8125 153.844 8.8125C153.177 8.8125 152.656 8.60417 152.281 8.1875C151.927 7.77083 151.75 7.26042 151.75 6.65625ZM160.188 47V44.6562L177.812 19.9688H160.469V17.375H181.469V19.7188L163.812 44.4062H182.125V47H160.188ZM183.625 47V44.6562L201.25 19.9688H183.906V17.375H204.906V19.7188L187.25 44.4062H205.562V47H183.625ZM208.312 38.6875C208.312 35.8125 209.406 33.5417 211.594 31.875C213.802 30.2083 216.771 29.375 220.5 29.375H228.375V26.2812C228.375 23.9688 227.781 22.2292 226.594 21.0625C225.406 19.875 223.49 19.2812 220.844 19.2812C218.198 19.2812 216.198 19.8125 214.844 20.875C213.51 21.9167 212.844 23.2812 212.844 24.9688V25.8438H209.875V24.7812C209.875 22.5312 210.854 20.625 212.812 19.0625C214.792 17.4792 217.49 16.6875 220.906 16.6875C224.24 16.6875 226.802 17.4375 228.594 18.9375C230.406 20.4375 231.312 22.8542 231.312 26.1875V39.5C231.312 40.8958 231.417 42.2188 231.625 43.4688C231.854 44.6979 232.156 45.7396 232.531 46.5938V47H229.75C229.438 46.3958 229.156 45.625 228.906 44.6875C228.677 43.75 228.521 42.8021 228.438 41.8438C227.771 43.3438 226.552 44.6562 224.781 45.7812C223.01 46.9062 220.75 47.4688 218 47.4688C215.062 47.4688 212.708 46.7188 210.938 45.2188C209.188 43.7188 208.312 41.5417 208.312 38.6875ZM211.281 38.5938C211.281 40.6354 211.896 42.1979 213.125 43.2812C214.375 44.3438 216.188 44.875 218.562 44.875C221.167 44.875 223.448 44.0938 225.406 42.5312C227.385 40.9479 228.375 39.125 228.375 37.0625V31.75H220.906C217.677 31.75 215.26 32.3646 213.656 33.5938C212.073 34.8021 211.281 36.4688 211.281 38.5938ZM239.156 47V17.375H241.906L241.969 21.8438H242.031C242.865 20.4271 244 19.2188 245.438 18.2188C246.875 17.1979 248.562 16.6875 250.5 16.6875C250.979 16.6875 251.479 16.7292 252 16.8125C252.542 16.8958 252.927 16.9896 253.156 17.0938V19.875C252.781 19.7708 252.344 19.6875 251.844 19.625C251.344 19.5417 250.792 19.5 250.188 19.5C248.5 19.5 246.927 20.0312 245.469 21.0938C244.031 22.1354 242.917 23.4896 242.125 25.1562V47H239.156ZM257.5 47V17.375H260.438V47H257.5ZM256.875 6.65625C256.875 6.07292 257.052 5.58333 257.406 5.1875C257.781 4.77083 258.312 4.5625 259 4.5625C259.667 4.5625 260.177 4.77083 260.531 5.1875C260.906 5.58333 261.094 6.08333 261.094 6.6875C261.094 7.29167 260.906 7.80208 260.531 8.21875C260.177 8.61458 259.656 8.8125 258.969 8.8125C258.302 8.8125 257.781 8.60417 257.406 8.1875C257.052 7.77083 256.875 7.26042 256.875 6.65625ZM266.562 38.6875C266.562 35.8125 267.656 33.5417 269.844 31.875C272.052 30.2083 275.021 29.375 278.75 29.375H286.625V26.2812C286.625 23.9688 286.031 22.2292 284.844 21.0625C283.656 19.875 281.74 19.2812 279.094 19.2812C276.448 19.2812 274.448 19.8125 273.094 20.875C271.76 21.9167 271.094 23.2812 271.094 24.9688V25.8438H268.125V24.7812C268.125 22.5312 269.104 20.625 271.062 19.0625C273.042 17.4792 275.74 16.6875 279.156 16.6875C282.49 16.6875 285.052 17.4375 286.844 18.9375C288.656 20.4375 289.562 22.8542 289.562 26.1875V39.5C289.562 40.8958 289.667 42.2188 289.875 43.4688C290.104 44.6979 290.406 45.7396 290.781 46.5938V47H288C287.688 46.3958 287.406 45.625 287.156 44.6875C286.927 43.75 286.771 42.8021 286.688 41.8438C286.021 43.3438 284.802 44.6562 283.031 45.7812C281.26 46.9062 279 47.4688 276.25 47.4688C273.312 47.4688 270.958 46.7188 269.188 45.2188C267.438 43.7188 266.562 41.5417 266.562 38.6875ZM269.531 38.5938C269.531 40.6354 270.146 42.1979 271.375 43.2812C272.625 44.3438 274.438 44.875 276.812 44.875C279.417 44.875 281.698 44.0938 283.656 42.5312C285.635 40.9479 286.625 39.125 286.625 37.0625V31.75H279.156C275.927 31.75 273.51 32.3646 271.906 33.5938C270.323 34.8021 269.531 36.4688 269.531 38.5938Z" fill="black"/>
</svg>
